<?xml version="1.0" encoding="UTF-8"?><svg id="Layer_2" xmlns="http://www.w3.org/2000/svg" xmlns:xlink="http://www.w3.org/1999/xlink" viewBox="0 0 38.52 38.52"><defs><style>.cls-1{fill:#000;}.cls-1,.cls-2,.cls-3,.cls-4{stroke-width:0px;}.cls-5{clip-path:url(#clippath-2);}.cls-2,.cls-3,.cls-4{fill:none;}.cls-6{clip-path:url(#clippath-1);}.cls-3,.cls-4{clip-rule:evenodd;}.cls-4{clip-path:url(#clippath);}</style><clipPath id="clippath"><polygon class="cls-3" points="0 38.52 38.52 38.52 38.52 0 0 0 0 38.52 0 38.52"/></clipPath><clipPath id="clippath-1"><polygon class="cls-4" points="0 0 38.52 0 38.52 38.52 0 38.52 0 0 0 0"/></clipPath><clipPath id="clippath-2"><polygon class="cls-2" points="0 38.52 38.52 38.52 38.52 0 0 0 0 38.52 0 38.52"/></clipPath></defs><g id="Layer_1-2"><g class="cls-6"><g class="cls-5"><path class="cls-1" d="M22.61,4.76c0,1.75-1.42,3.18-3.17,3.18s-3.17-1.42-3.17-3.18c0-1.75,1.42-3.18,3.17-3.18,1.75,0,3.17,1.42,3.17,3.18h0Z"/><path class="cls-1" d="M28.09,21.12l-2.22-9.45c-.08-.32-.24-.64-.48-.87-.95-.79-2.06-1.35-3.33-1.75-.87-.16-1.75-.32-2.62-.32s-1.75.16-2.62.4c-1.27.32-2.38.95-3.33,1.75-.24.24-.4.56-.48.87l-2.22,9.45c0,.08-.08.24-.08.4,0,.87.71,1.59,1.59,1.59.71,0,1.35-.56,1.51-1.19l1.67-6.91v22.23h3.17v-14.29h1.59v14.29h3.17V15l1.67,6.91c.16.64.79,1.19,1.51,1.19.87,0,1.59-.71,1.59-1.59,0-.16-.08-.32-.08-.4h0Z"/></g></g></g></svg>