<?xml version="1.0" encoding="UTF-8"?><svg id="Layer_2" xmlns="http://www.w3.org/2000/svg" viewBox="0 0 13.13 28.64"><defs><style>.cls-1{fill:#000;stroke-width:0px;}</style></defs><g id="Layer_2-2"><path class="cls-1" d="M.61,2.28c-.2,1.45-.41,2.9-.61,4.35.46.02.92.04,1.39.07.06-.4.31-1.76,1.5-2.81.21-.18,1.85-1.58,3.93-1,.13.04,1.78.52,2.57,2.14.58,1.19.37,2.31.14,3.43-.27,1.33-.64,1.78-2.01,4.59-1.06,2.15-1.59,3.25-1.93,4.44-.46,1.62-.55,3.03-.56,3.96h1.6c.06-1,.25-2.54.93-4.27.35-.89,1.06-2.83,2.7-4.66.6-.67,1.02-.98,1.56-1.84.81-1.28,1.06-2.47,1.13-2.78.13-.64.63-3.13-.79-5.23C9.94-.59,5.25.04,5.04.07,2.76.41,1.23,1.69.61,2.28Z"/><circle class="cls-1" cx="5.91" cy="26.53" r="2.12"/></g></svg>