<?xml version="1.0" encoding="UTF-8"?><svg id="Layer_2" xmlns="http://www.w3.org/2000/svg" xmlns:xlink="http://www.w3.org/1999/xlink" viewBox="0 0 38.52 38.52"><defs><style>.cls-1{fill:#000;}.cls-1,.cls-2,.cls-3,.cls-4{stroke-width:0px;}.cls-5{clip-path:url(#clippath-2);}.cls-2,.cls-3,.cls-4{fill:none;}.cls-6{clip-path:url(#clippath-1);}.cls-3,.cls-4{clip-rule:evenodd;}.cls-4{clip-path:url(#clippath);}</style><clipPath id="clippath"><polygon class="cls-3" points="0 38.52 38.52 38.52 38.52 0 0 0 0 38.52 0 38.52"/></clipPath><clipPath id="clippath-1"><polygon class="cls-4" points="0 0 38.52 0 38.52 38.52 0 38.52 0 0 0 0"/></clipPath><clipPath id="clippath-2"><polygon class="cls-2" points="0 38.52 38.52 38.52 38.52 0 0 0 0 38.52 0 38.52"/></clipPath></defs><g id="Layer_1-2"><g class="cls-6"><g class="cls-5"><path class="cls-1" d="M22.65,4.76c0,1.75-1.42,3.18-3.17,3.18s-3.17-1.42-3.17-3.18c0-1.75,1.42-3.18,3.17-3.18,1.75,0,3.17,1.42,3.17,3.18h0Z"/><path class="cls-1" d="M28.13,20.96l-2.86-9.84c-.08-.4-.32-.71-.63-.87-.95-.64-2.06-1.03-3.33-1.35-.63-.08-1.19-.16-1.82-.16s-1.19.08-1.82.16c-1.27.24-2.38.71-3.33,1.35-.32.24-.56.48-.63.87l-2.94,9.84c-.24.87.24,1.75,1.11,1.98.16.08.32.08.48.08.71,0,1.35-.48,1.51-1.11l2.46-8.34v2.78l-2.94,9.84h2.14v11.11h3.17v-11.11h1.59v11.11h3.17v-11.11h2.14l-2.94-9.84v-2.78l2.46,8.34c.24.71.87,1.11,1.51,1.11.16,0,.32,0,.48-.08.79-.24,1.27-1.11,1.03-1.98h0Z"/></g></g></g></svg>